<?xml version="1.0" encoding="UTF-8"?>
<svg width="1200pt" height="1200pt" version="1.1" viewBox="0 0 1200 1200" xmlns="http://www.w3.org/2000/svg">
 <path d="m991.51 741.56c0 148.27-86.191 286.37-219.59 351.81l-10.824 5.3125 5.0938-10.934c72.121-155.01 13.641-235.93-37.945-307.34-42.332-58.594-78.871-109.18-53.766-193.46 1.1016-3.6992-0.25781-7.7031-3.3906-9.9688-3.0508-2.2148-7.4219-2.2539-10.52-0.085937-147.2 102.5-196.62 232.02-146.9 384.93l2.7812 8.5586-8.375-3.2695c-25.055-9.7695-47.145-42.43-65.656-97.055-1.0547-3.1094-3.7109-5.4141-6.9414-6.0234-3.1953-0.60156-6.5273 0.58594-8.6445 3.0977-42.746 51.023-53.707 117.93-32.582 198.84l2.7656 10.578-9.1953-5.9258c-112.3-72.379-179.33-195.4-179.33-329.08 0-110.62 49.848-230.6 127.02-305.66l5.7656-5.6094 1.3945 7.9219c11.203 63.305 34.004 131.83 57.613 132.67 10.934 0.46484 18.418-10.445 22.004-32.387 0.085938-0.47656 0.12109-0.96875 0.12109-1.457 0-203.03 106.74-389.19 248.29-433.04l8.668-2.6797-3.4766 8.3867c-16.605 40.016-41.68 100.48-26.242 152.52 15.602 52.594 47.082 94.383 77.523 134.8 48.711 64.664 94.691 125.74 85.641 230.48-0.33203 3.8555 1.8242 7.5195 5.3633 9.0977 3.5391 1.5664 7.7031 0.72266 10.336-2.1055 34.113-36.551 35.043-127.52 24.551-200.47l-1.8125-12.66 9.0508 9.0508c78.48 78.391 131.21 203.44 131.21 311.13z" fill="#ff001b"/>
</svg>
